<svg width="24" height="24" viewBox="0 0 24 24" fill="none" xmlns="http://www.w3.org/2000/svg">
<path d="M18.437 20.937H5.56299C4.89995 20.937 4.26406 20.6736 3.79522 20.2048C3.32638 19.7359 3.06299 19.1 3.06299 18.437V5.56299C3.06299 4.89995 3.32638 4.26406 3.79522 3.79522C4.26406 3.32638 4.89995 3.06299 5.56299 3.06299H18.437C19.1 3.06299 19.7359 3.32638 20.2048 3.79522C20.6736 4.26406 20.937 4.89995 20.937 5.56299V18.437C20.937 19.1 20.6736 19.7359 20.2048 20.2048C19.7359 20.6736 19.1 20.937 18.437 20.937ZM5.56299 4.06299C5.16516 4.06299 4.78363 4.22102 4.50233 4.50233C4.22102 4.78363 4.06299 5.16516 4.06299 5.56299V18.437C4.06299 18.8348 4.22102 19.2163 4.50233 19.4976C4.78363 19.779 5.16516 19.937 5.56299 19.937H18.437C18.8348 19.937 19.2163 19.779 19.4976 19.4976C19.779 19.2163 19.937 18.8348 19.937 18.437V5.56299C19.937 5.16516 19.779 4.78363 19.4976 4.50233C19.2163 4.22102 18.8348 4.06299 18.437 4.06299H5.56299Z" fill="black"/>
<path d="M12 16.5941C11.0914 16.5931 10.2035 16.3227 9.44845 15.8172C8.69344 15.3116 8.10527 14.5936 7.75828 13.7538C7.41129 12.914 7.32107 11.9902 7.49901 11.0992C7.67696 10.2081 8.11508 9.38986 8.758 8.74778C9.40092 8.1057 10.2198 7.66864 11.111 7.49186C12.0023 7.31508 12.926 7.40651 13.7653 7.75459C14.6046 8.10268 15.3219 8.69179 15.8265 9.44746C16.331 10.2031 16.6002 11.0914 16.6 12.0001C16.5984 13.219 16.1131 14.3875 15.2506 15.2489C14.3881 16.1102 13.219 16.5941 12 16.5941ZM12 8.40005C11.2894 8.40104 10.5951 8.6126 10.0046 9.008C9.41422 9.40341 8.95421 9.96492 8.68274 10.6216C8.41126 11.2783 8.34049 12.0007 8.47936 12.6976C8.61823 13.3945 8.96052 14.0346 9.46299 14.5371C9.96546 15.0396 10.6056 15.3819 11.3025 15.5207C11.9994 15.6596 12.7218 15.5888 13.3785 15.3174C14.0352 15.0459 14.5967 14.5859 14.9921 13.9954C15.3875 13.405 15.599 12.7106 15.6 12.0001C15.6 11.0453 15.2208 10.1296 14.5456 9.45447C13.8705 8.77934 12.9548 8.40005 12 8.40005Z" fill="black"/>
<path d="M17.2 7.90488C17.7937 7.90488 18.275 7.42359 18.275 6.82988C18.275 6.23618 17.7937 5.75488 17.2 5.75488C16.6063 5.75488 16.125 6.23618 16.125 6.82988C16.125 7.42359 16.6063 7.90488 17.2 7.90488Z" fill="black"/>
</svg>
