<svg width="24" height="24" viewBox="0 0 24 24" fill="none" xmlns="http://www.w3.org/2000/svg">
<path d="M19.0199 4.97498C17.6309 3.58658 15.8614 2.64124 13.9351 2.25851C12.0088 1.87577 10.0123 2.07284 8.19802 2.82478C6.38373 3.57672 4.83315 4.84976 3.74237 6.48293C2.65159 8.1161 2.06958 10.036 2.06995 12C2.06995 14.634 3.11598 17.1603 4.97807 19.0233C6.84017 20.8863 9.36589 21.9337 11.9999 21.935C13.3034 21.935 14.5943 21.6802 15.7999 21.185C17.0015 20.6775 18.0946 19.9442 19.0199 19.025C19.9426 18.1025 20.6745 17.0073 21.1738 15.8019C21.6731 14.5966 21.9301 13.3047 21.9301 12C21.9301 10.6953 21.6731 9.40337 21.1738 8.19801C20.6745 6.99265 19.9426 5.89746 19.0199 4.97498ZM18.3199 18.315C16.89 19.7511 15.0137 20.6575 12.9999 20.885V14.325H14.8799C15.1452 14.325 15.3995 14.2196 15.5871 14.0321C15.7746 13.8445 15.8799 13.5902 15.8799 13.325C15.8799 13.0598 15.7746 12.8054 15.5871 12.6179C15.3995 12.4303 15.1452 12.325 14.8799 12.325H12.9999V9.58498C12.9999 9.31976 13.1053 9.06541 13.2928 8.87787C13.4804 8.69034 13.7347 8.58498 13.9999 8.58498H15.1999C15.4652 8.58498 15.7195 8.47962 15.9071 8.29209C16.0946 8.10455 16.1999 7.8502 16.1999 7.58498C16.1999 7.31976 16.0946 7.06541 15.9071 6.87787C15.7195 6.69034 15.4652 6.58498 15.1999 6.58498H13.4999C12.8369 6.58498 12.201 6.84837 11.7322 7.31721C11.2633 7.78605 10.9999 8.42194 10.9999 9.08498V12.325H9.12995C8.86473 12.325 8.61038 12.4303 8.42284 12.6179C8.2353 12.8054 8.12995 13.0598 8.12995 13.325C8.12995 13.5902 8.2353 13.8445 8.42284 14.0321C8.61038 14.2196 8.86473 14.325 9.12995 14.325H10.9999V20.885C9.14284 20.6731 7.39923 19.8831 6.0154 18.6266C4.63156 17.3702 3.67746 15.7107 3.28785 13.8826C2.89823 12.0545 3.0928 10.1502 3.84408 8.43864C4.59535 6.72711 5.86535 5.29486 7.4747 4.3442C9.08404 3.39354 10.9514 2.97252 12.813 3.1406C14.6746 3.30868 16.4363 4.05737 17.8493 5.28092C19.2624 6.50447 20.2553 8.14104 20.6878 9.95946C21.1204 11.7779 20.9707 13.6862 20.2599 15.415C19.8064 16.4977 19.1476 17.4825 18.3199 18.315Z" fill="black"/>
</svg>
